<mxfile host="Electron" agent="Mozilla/5.0 (Windows NT 10.0; Win64; x64) AppleWebKit/537.36 (KHTML, like Gecko) draw.io/24.7.8 Chrome/128.0.6613.36 Electron/32.0.1 Safari/537.36" version="24.7.8" pages="2">
  <diagram id="C5RBs43oDa-KdzZeNtuy" name="Diagramme de class">
    <mxGraphModel dx="2062" dy="1956" grid="1" gridSize="10" guides="1" tooltips="1" connect="1" arrows="1" fold="1" page="1" pageScale="1" pageWidth="827" pageHeight="1169" math="0" shadow="0">
      <root>
        <mxCell id="WIyWlLk6GJQsqaUBKTNV-0" />
        <mxCell id="WIyWlLk6GJQsqaUBKTNV-1" parent="WIyWlLk6GJQsqaUBKTNV-0" />
        <mxCell id="zkfFHV4jXpPFQw0GAbJ--0" value="User" style="swimlane;fontStyle=2;align=center;verticalAlign=top;childLayout=stackLayout;horizontal=1;startSize=26;horizontalStack=0;resizeParent=1;resizeLast=0;collapsible=1;marginBottom=0;rounded=0;shadow=0;strokeWidth=1;" parent="WIyWlLk6GJQsqaUBKTNV-1" vertex="1">
          <mxGeometry x="110" y="264" width="170" height="332" as="geometry">
            <mxRectangle x="230" y="140" width="160" height="26" as="alternateBounds" />
          </mxGeometry>
        </mxCell>
        <mxCell id="zkfFHV4jXpPFQw0GAbJ--1" value="id : Long" style="text;align=left;verticalAlign=top;spacingLeft=4;spacingRight=4;overflow=hidden;rotatable=0;points=[[0,0.5],[1,0.5]];portConstraint=eastwest;" parent="zkfFHV4jXpPFQw0GAbJ--0" vertex="1">
          <mxGeometry y="26" width="170" height="26" as="geometry" />
        </mxCell>
        <mxCell id="zkfFHV4jXpPFQw0GAbJ--2" value="first_name : VARCHAR" style="text;align=left;verticalAlign=top;spacingLeft=4;spacingRight=4;overflow=hidden;rotatable=0;points=[[0,0.5],[1,0.5]];portConstraint=eastwest;rounded=0;shadow=0;html=0;" parent="zkfFHV4jXpPFQw0GAbJ--0" vertex="1">
          <mxGeometry y="52" width="170" height="26" as="geometry" />
        </mxCell>
        <mxCell id="zkfFHV4jXpPFQw0GAbJ--3" value="last_name : VARCHAR" style="text;align=left;verticalAlign=top;spacingLeft=4;spacingRight=4;overflow=hidden;rotatable=0;points=[[0,0.5],[1,0.5]];portConstraint=eastwest;rounded=0;shadow=0;html=0;" parent="zkfFHV4jXpPFQw0GAbJ--0" vertex="1">
          <mxGeometry y="78" width="170" height="26" as="geometry" />
        </mxCell>
        <mxCell id="VZGt5exxxiFLXdMZdl2L-6" value="email : VARCHAR" style="text;align=left;verticalAlign=top;spacingLeft=4;spacingRight=4;overflow=hidden;rotatable=0;points=[[0,0.5],[1,0.5]];portConstraint=eastwest;rounded=0;shadow=0;html=0;" parent="zkfFHV4jXpPFQw0GAbJ--0" vertex="1">
          <mxGeometry y="104" width="170" height="26" as="geometry" />
        </mxCell>
        <mxCell id="VZGt5exxxiFLXdMZdl2L-7" value="password : VARCHAR" style="text;align=left;verticalAlign=top;spacingLeft=4;spacingRight=4;overflow=hidden;rotatable=0;points=[[0,0.5],[1,0.5]];portConstraint=eastwest;rounded=0;shadow=0;html=0;" parent="zkfFHV4jXpPFQw0GAbJ--0" vertex="1">
          <mxGeometry y="130" width="170" height="26" as="geometry" />
        </mxCell>
        <mxCell id="VZGt5exxxiFLXdMZdl2L-8" value="role  : ENUM" style="text;align=left;verticalAlign=top;spacingLeft=4;spacingRight=4;overflow=hidden;rotatable=0;points=[[0,0.5],[1,0.5]];portConstraint=eastwest;rounded=0;shadow=0;html=0;" parent="zkfFHV4jXpPFQw0GAbJ--0" vertex="1">
          <mxGeometry y="156" width="170" height="26" as="geometry" />
        </mxCell>
        <mxCell id="VZGt5exxxiFLXdMZdl2L-9" value="enabled : Boolean" style="text;align=left;verticalAlign=top;spacingLeft=4;spacingRight=4;overflow=hidden;rotatable=0;points=[[0,0.5],[1,0.5]];portConstraint=eastwest;rounded=0;shadow=0;html=0;" parent="zkfFHV4jXpPFQw0GAbJ--0" vertex="1">
          <mxGeometry y="182" width="170" height="28" as="geometry" />
        </mxCell>
        <mxCell id="VZGt5exxxiFLXdMZdl2L-10" value="email_verification_code" style="text;align=left;verticalAlign=top;spacingLeft=4;spacingRight=4;overflow=hidden;rotatable=0;points=[[0,0.5],[1,0.5]];portConstraint=eastwest;rounded=0;shadow=0;html=0;" parent="zkfFHV4jXpPFQw0GAbJ--0" vertex="1">
          <mxGeometry y="210" width="170" height="26" as="geometry" />
        </mxCell>
        <mxCell id="VZGt5exxxiFLXdMZdl2L-13" value="verification_code_expiresAt" style="text;align=left;verticalAlign=top;spacingLeft=4;spacingRight=4;overflow=hidden;rotatable=0;points=[[0,0.5],[1,0.5]];portConstraint=eastwest;rounded=0;shadow=0;html=0;" parent="zkfFHV4jXpPFQw0GAbJ--0" vertex="1">
          <mxGeometry y="236" width="170" height="26" as="geometry" />
        </mxCell>
        <mxCell id="VZGt5exxxiFLXdMZdl2L-11" value="created_at : TIMESTAMP" style="text;align=left;verticalAlign=top;spacingLeft=4;spacingRight=4;overflow=hidden;rotatable=0;points=[[0,0.5],[1,0.5]];portConstraint=eastwest;rounded=0;shadow=0;html=0;" parent="zkfFHV4jXpPFQw0GAbJ--0" vertex="1">
          <mxGeometry y="262" width="170" height="26" as="geometry" />
        </mxCell>
        <mxCell id="VZGt5exxxiFLXdMZdl2L-12" value="updated_at : TIMESTAMP" style="text;align=left;verticalAlign=top;spacingLeft=4;spacingRight=4;overflow=hidden;rotatable=0;points=[[0,0.5],[1,0.5]];portConstraint=eastwest;rounded=0;shadow=0;html=0;" parent="zkfFHV4jXpPFQw0GAbJ--0" vertex="1">
          <mxGeometry y="288" width="170" height="26" as="geometry" />
        </mxCell>
        <mxCell id="zkfFHV4jXpPFQw0GAbJ--4" value="" style="line;html=1;strokeWidth=1;align=left;verticalAlign=middle;spacingTop=-1;spacingLeft=3;spacingRight=3;rotatable=0;labelPosition=right;points=[];portConstraint=eastwest;" parent="zkfFHV4jXpPFQw0GAbJ--0" vertex="1">
          <mxGeometry y="314" width="170" height="8" as="geometry" />
        </mxCell>
        <mxCell id="VZGt5exxxiFLXdMZdl2L-14" value="Article " style="swimlane;fontStyle=2;align=center;verticalAlign=top;childLayout=stackLayout;horizontal=1;startSize=26;horizontalStack=0;resizeParent=1;resizeLast=0;collapsible=1;marginBottom=0;rounded=0;shadow=0;strokeWidth=1;" parent="WIyWlLk6GJQsqaUBKTNV-1" vertex="1">
          <mxGeometry x="200" y="-110" width="170" height="300" as="geometry">
            <mxRectangle x="230" y="140" width="160" height="26" as="alternateBounds" />
          </mxGeometry>
        </mxCell>
        <mxCell id="VZGt5exxxiFLXdMZdl2L-15" value="id : Long" style="text;align=left;verticalAlign=top;spacingLeft=4;spacingRight=4;overflow=hidden;rotatable=0;points=[[0,0.5],[1,0.5]];portConstraint=eastwest;" parent="VZGt5exxxiFLXdMZdl2L-14" vertex="1">
          <mxGeometry y="26" width="170" height="26" as="geometry" />
        </mxCell>
        <mxCell id="VZGt5exxxiFLXdMZdl2L-16" value="name : VARCHAR" style="text;align=left;verticalAlign=top;spacingLeft=4;spacingRight=4;overflow=hidden;rotatable=0;points=[[0,0.5],[1,0.5]];portConstraint=eastwest;rounded=0;shadow=0;html=0;" parent="VZGt5exxxiFLXdMZdl2L-14" vertex="1">
          <mxGeometry y="52" width="170" height="26" as="geometry" />
        </mxCell>
        <mxCell id="VZGt5exxxiFLXdMZdl2L-17" value="description : VARCHAR" style="text;align=left;verticalAlign=top;spacingLeft=4;spacingRight=4;overflow=hidden;rotatable=0;points=[[0,0.5],[1,0.5]];portConstraint=eastwest;rounded=0;shadow=0;html=0;" parent="VZGt5exxxiFLXdMZdl2L-14" vertex="1">
          <mxGeometry y="78" width="170" height="26" as="geometry" />
        </mxCell>
        <mxCell id="VZGt5exxxiFLXdMZdl2L-18" value="proce : double" style="text;align=left;verticalAlign=top;spacingLeft=4;spacingRight=4;overflow=hidden;rotatable=0;points=[[0,0.5],[1,0.5]];portConstraint=eastwest;rounded=0;shadow=0;html=0;" parent="VZGt5exxxiFLXdMZdl2L-14" vertex="1">
          <mxGeometry y="104" width="170" height="26" as="geometry" />
        </mxCell>
        <mxCell id="VZGt5exxxiFLXdMZdl2L-19" value="tele : VARCHAR" style="text;align=left;verticalAlign=top;spacingLeft=4;spacingRight=4;overflow=hidden;rotatable=0;points=[[0,0.5],[1,0.5]];portConstraint=eastwest;rounded=0;shadow=0;html=0;" parent="VZGt5exxxiFLXdMZdl2L-14" vertex="1">
          <mxGeometry y="130" width="170" height="26" as="geometry" />
        </mxCell>
        <mxCell id="VZGt5exxxiFLXdMZdl2L-20" value="is_accepted : boolean " style="text;align=left;verticalAlign=top;spacingLeft=4;spacingRight=4;overflow=hidden;rotatable=0;points=[[0,0.5],[1,0.5]];portConstraint=eastwest;rounded=0;shadow=0;html=0;" parent="VZGt5exxxiFLXdMZdl2L-14" vertex="1">
          <mxGeometry y="156" width="170" height="26" as="geometry" />
        </mxCell>
        <mxCell id="VZGt5exxxiFLXdMZdl2L-21" value=" is_archived : boolean" style="text;align=left;verticalAlign=top;spacingLeft=4;spacingRight=4;overflow=hidden;rotatable=0;points=[[0,0.5],[1,0.5]];portConstraint=eastwest;rounded=0;shadow=0;html=0;" parent="VZGt5exxxiFLXdMZdl2L-14" vertex="1">
          <mxGeometry y="182" width="170" height="28" as="geometry" />
        </mxCell>
        <mxCell id="VZGt5exxxiFLXdMZdl2L-22" value="status : int" style="text;align=left;verticalAlign=top;spacingLeft=4;spacingRight=4;overflow=hidden;rotatable=0;points=[[0,0.5],[1,0.5]];portConstraint=eastwest;rounded=0;shadow=0;html=0;" parent="VZGt5exxxiFLXdMZdl2L-14" vertex="1">
          <mxGeometry y="210" width="170" height="26" as="geometry" />
        </mxCell>
        <mxCell id="VZGt5exxxiFLXdMZdl2L-24" value="created_at : TIMESTAMP" style="text;align=left;verticalAlign=top;spacingLeft=4;spacingRight=4;overflow=hidden;rotatable=0;points=[[0,0.5],[1,0.5]];portConstraint=eastwest;rounded=0;shadow=0;html=0;" parent="VZGt5exxxiFLXdMZdl2L-14" vertex="1">
          <mxGeometry y="236" width="170" height="26" as="geometry" />
        </mxCell>
        <mxCell id="VZGt5exxxiFLXdMZdl2L-25" value="updated_at : TIMESTAMP" style="text;align=left;verticalAlign=top;spacingLeft=4;spacingRight=4;overflow=hidden;rotatable=0;points=[[0,0.5],[1,0.5]];portConstraint=eastwest;rounded=0;shadow=0;html=0;" parent="VZGt5exxxiFLXdMZdl2L-14" vertex="1">
          <mxGeometry y="262" width="170" height="26" as="geometry" />
        </mxCell>
        <mxCell id="VZGt5exxxiFLXdMZdl2L-26" value="" style="line;html=1;strokeWidth=1;align=left;verticalAlign=middle;spacingTop=-1;spacingLeft=3;spacingRight=3;rotatable=0;labelPosition=right;points=[];portConstraint=eastwest;" parent="VZGt5exxxiFLXdMZdl2L-14" vertex="1">
          <mxGeometry y="288" width="170" height="8" as="geometry" />
        </mxCell>
        <mxCell id="VZGt5exxxiFLXdMZdl2L-27" value="Article_Images" style="swimlane;fontStyle=2;align=center;verticalAlign=top;childLayout=stackLayout;horizontal=1;startSize=26;horizontalStack=0;resizeParent=1;resizeLast=0;collapsible=1;marginBottom=0;rounded=0;shadow=0;strokeWidth=1;" parent="WIyWlLk6GJQsqaUBKTNV-1" vertex="1">
          <mxGeometry x="440" y="-90" width="170" height="112" as="geometry">
            <mxRectangle x="230" y="140" width="160" height="26" as="alternateBounds" />
          </mxGeometry>
        </mxCell>
        <mxCell id="VZGt5exxxiFLXdMZdl2L-28" value="id : Long" style="text;align=left;verticalAlign=top;spacingLeft=4;spacingRight=4;overflow=hidden;rotatable=0;points=[[0,0.5],[1,0.5]];portConstraint=eastwest;" parent="VZGt5exxxiFLXdMZdl2L-27" vertex="1">
          <mxGeometry y="26" width="170" height="26" as="geometry" />
        </mxCell>
        <mxCell id="VZGt5exxxiFLXdMZdl2L-29" value="image_url : VARCHAR" style="text;align=left;verticalAlign=top;spacingLeft=4;spacingRight=4;overflow=hidden;rotatable=0;points=[[0,0.5],[1,0.5]];portConstraint=eastwest;rounded=0;shadow=0;html=0;" parent="VZGt5exxxiFLXdMZdl2L-27" vertex="1">
          <mxGeometry y="52" width="170" height="26" as="geometry" />
        </mxCell>
        <mxCell id="VZGt5exxxiFLXdMZdl2L-36" value="created_at : TIMESTAMP" style="text;align=left;verticalAlign=top;spacingLeft=4;spacingRight=4;overflow=hidden;rotatable=0;points=[[0,0.5],[1,0.5]];portConstraint=eastwest;rounded=0;shadow=0;html=0;" parent="VZGt5exxxiFLXdMZdl2L-27" vertex="1">
          <mxGeometry y="78" width="170" height="26" as="geometry" />
        </mxCell>
        <mxCell id="VZGt5exxxiFLXdMZdl2L-38" value="" style="line;html=1;strokeWidth=1;align=left;verticalAlign=middle;spacingTop=-1;spacingLeft=3;spacingRight=3;rotatable=0;labelPosition=right;points=[];portConstraint=eastwest;" parent="VZGt5exxxiFLXdMZdl2L-27" vertex="1">
          <mxGeometry y="104" width="170" height="8" as="geometry" />
        </mxCell>
        <mxCell id="VZGt5exxxiFLXdMZdl2L-39" value="Mark " style="swimlane;fontStyle=2;align=center;verticalAlign=top;childLayout=stackLayout;horizontal=1;startSize=26;horizontalStack=0;resizeParent=1;resizeLast=0;collapsible=1;marginBottom=0;rounded=0;shadow=0;strokeWidth=1;" parent="WIyWlLk6GJQsqaUBKTNV-1" vertex="1">
          <mxGeometry x="700" y="319" width="170" height="138" as="geometry">
            <mxRectangle x="230" y="140" width="160" height="26" as="alternateBounds" />
          </mxGeometry>
        </mxCell>
        <mxCell id="VZGt5exxxiFLXdMZdl2L-40" value="id : Long" style="text;align=left;verticalAlign=top;spacingLeft=4;spacingRight=4;overflow=hidden;rotatable=0;points=[[0,0.5],[1,0.5]];portConstraint=eastwest;" parent="VZGt5exxxiFLXdMZdl2L-39" vertex="1">
          <mxGeometry y="26" width="170" height="26" as="geometry" />
        </mxCell>
        <mxCell id="VZGt5exxxiFLXdMZdl2L-41" value="name : VARCHAR" style="text;align=left;verticalAlign=top;spacingLeft=4;spacingRight=4;overflow=hidden;rotatable=0;points=[[0,0.5],[1,0.5]];portConstraint=eastwest;rounded=0;shadow=0;html=0;" parent="VZGt5exxxiFLXdMZdl2L-39" vertex="1">
          <mxGeometry y="52" width="170" height="26" as="geometry" />
        </mxCell>
        <mxCell id="VZGt5exxxiFLXdMZdl2L-42" value="created_at : TIMESTAMP" style="text;align=left;verticalAlign=top;spacingLeft=4;spacingRight=4;overflow=hidden;rotatable=0;points=[[0,0.5],[1,0.5]];portConstraint=eastwest;rounded=0;shadow=0;html=0;" parent="VZGt5exxxiFLXdMZdl2L-39" vertex="1">
          <mxGeometry y="78" width="170" height="26" as="geometry" />
        </mxCell>
        <mxCell id="VZGt5exxxiFLXdMZdl2L-56" value="updated_at : TIMESTAMP" style="text;align=left;verticalAlign=top;spacingLeft=4;spacingRight=4;overflow=hidden;rotatable=0;points=[[0,0.5],[1,0.5]];portConstraint=eastwest;rounded=0;shadow=0;html=0;" parent="VZGt5exxxiFLXdMZdl2L-39" vertex="1">
          <mxGeometry y="104" width="170" height="26" as="geometry" />
        </mxCell>
        <mxCell id="VZGt5exxxiFLXdMZdl2L-43" value="" style="line;html=1;strokeWidth=1;align=left;verticalAlign=middle;spacingTop=-1;spacingLeft=3;spacingRight=3;rotatable=0;labelPosition=right;points=[];portConstraint=eastwest;" parent="VZGt5exxxiFLXdMZdl2L-39" vertex="1">
          <mxGeometry y="130" width="170" height="8" as="geometry" />
        </mxCell>
        <mxCell id="VZGt5exxxiFLXdMZdl2L-44" value="Modul " style="swimlane;fontStyle=2;align=center;verticalAlign=top;childLayout=stackLayout;horizontal=1;startSize=26;horizontalStack=0;resizeParent=1;resizeLast=0;collapsible=1;marginBottom=0;rounded=0;shadow=0;strokeWidth=1;" parent="WIyWlLk6GJQsqaUBKTNV-1" vertex="1">
          <mxGeometry x="400" y="319" width="170" height="164" as="geometry">
            <mxRectangle x="230" y="140" width="160" height="26" as="alternateBounds" />
          </mxGeometry>
        </mxCell>
        <mxCell id="VZGt5exxxiFLXdMZdl2L-45" value="id : Long" style="text;align=left;verticalAlign=top;spacingLeft=4;spacingRight=4;overflow=hidden;rotatable=0;points=[[0,0.5],[1,0.5]];portConstraint=eastwest;" parent="VZGt5exxxiFLXdMZdl2L-44" vertex="1">
          <mxGeometry y="26" width="170" height="26" as="geometry" />
        </mxCell>
        <mxCell id="VZGt5exxxiFLXdMZdl2L-46" value="name : VARCHAR" style="text;align=left;verticalAlign=top;spacingLeft=4;spacingRight=4;overflow=hidden;rotatable=0;points=[[0,0.5],[1,0.5]];portConstraint=eastwest;rounded=0;shadow=0;html=0;" parent="VZGt5exxxiFLXdMZdl2L-44" vertex="1">
          <mxGeometry y="52" width="170" height="26" as="geometry" />
        </mxCell>
        <mxCell id="VZGt5exxxiFLXdMZdl2L-47" value="created_at : TIMESTAMP" style="text;align=left;verticalAlign=top;spacingLeft=4;spacingRight=4;overflow=hidden;rotatable=0;points=[[0,0.5],[1,0.5]];portConstraint=eastwest;rounded=0;shadow=0;html=0;" parent="VZGt5exxxiFLXdMZdl2L-44" vertex="1">
          <mxGeometry y="78" width="170" height="26" as="geometry" />
        </mxCell>
        <mxCell id="VZGt5exxxiFLXdMZdl2L-55" value="updated_at : TIMESTAMP" style="text;align=left;verticalAlign=top;spacingLeft=4;spacingRight=4;overflow=hidden;rotatable=0;points=[[0,0.5],[1,0.5]];portConstraint=eastwest;rounded=0;shadow=0;html=0;" parent="VZGt5exxxiFLXdMZdl2L-44" vertex="1">
          <mxGeometry y="104" width="170" height="26" as="geometry" />
        </mxCell>
        <mxCell id="VZGt5exxxiFLXdMZdl2L-48" value="" style="line;html=1;strokeWidth=1;align=left;verticalAlign=middle;spacingTop=-1;spacingLeft=3;spacingRight=3;rotatable=0;labelPosition=right;points=[];portConstraint=eastwest;" parent="VZGt5exxxiFLXdMZdl2L-44" vertex="1">
          <mxGeometry y="130" width="170" height="8" as="geometry" />
        </mxCell>
        <mxCell id="VZGt5exxxiFLXdMZdl2L-49" value="Country " style="swimlane;fontStyle=2;align=center;verticalAlign=top;childLayout=stackLayout;horizontal=1;startSize=26;horizontalStack=0;resizeParent=1;resizeLast=0;collapsible=1;marginBottom=0;rounded=0;shadow=0;strokeWidth=1;" parent="WIyWlLk6GJQsqaUBKTNV-1" vertex="1">
          <mxGeometry x="750" y="100" width="170" height="138" as="geometry">
            <mxRectangle x="230" y="140" width="160" height="26" as="alternateBounds" />
          </mxGeometry>
        </mxCell>
        <mxCell id="VZGt5exxxiFLXdMZdl2L-50" value="id : Long" style="text;align=left;verticalAlign=top;spacingLeft=4;spacingRight=4;overflow=hidden;rotatable=0;points=[[0,0.5],[1,0.5]];portConstraint=eastwest;" parent="VZGt5exxxiFLXdMZdl2L-49" vertex="1">
          <mxGeometry y="26" width="170" height="26" as="geometry" />
        </mxCell>
        <mxCell id="VZGt5exxxiFLXdMZdl2L-51" value="name : VARCHAR" style="text;align=left;verticalAlign=top;spacingLeft=4;spacingRight=4;overflow=hidden;rotatable=0;points=[[0,0.5],[1,0.5]];portConstraint=eastwest;rounded=0;shadow=0;html=0;" parent="VZGt5exxxiFLXdMZdl2L-49" vertex="1">
          <mxGeometry y="52" width="170" height="26" as="geometry" />
        </mxCell>
        <mxCell id="VZGt5exxxiFLXdMZdl2L-52" value="created_at : TIMESTAMP" style="text;align=left;verticalAlign=top;spacingLeft=4;spacingRight=4;overflow=hidden;rotatable=0;points=[[0,0.5],[1,0.5]];portConstraint=eastwest;rounded=0;shadow=0;html=0;" parent="VZGt5exxxiFLXdMZdl2L-49" vertex="1">
          <mxGeometry y="78" width="170" height="26" as="geometry" />
        </mxCell>
        <mxCell id="VZGt5exxxiFLXdMZdl2L-54" value="updated_at : TIMESTAMP" style="text;align=left;verticalAlign=top;spacingLeft=4;spacingRight=4;overflow=hidden;rotatable=0;points=[[0,0.5],[1,0.5]];portConstraint=eastwest;rounded=0;shadow=0;html=0;" parent="VZGt5exxxiFLXdMZdl2L-49" vertex="1">
          <mxGeometry y="104" width="170" height="26" as="geometry" />
        </mxCell>
        <mxCell id="VZGt5exxxiFLXdMZdl2L-53" value="" style="line;html=1;strokeWidth=1;align=left;verticalAlign=middle;spacingTop=-1;spacingLeft=3;spacingRight=3;rotatable=0;labelPosition=right;points=[];portConstraint=eastwest;" parent="VZGt5exxxiFLXdMZdl2L-49" vertex="1">
          <mxGeometry y="130" width="170" height="8" as="geometry" />
        </mxCell>
        <mxCell id="VZGt5exxxiFLXdMZdl2L-57" value="City" style="swimlane;fontStyle=2;align=center;verticalAlign=top;childLayout=stackLayout;horizontal=1;startSize=26;horizontalStack=0;resizeParent=1;resizeLast=0;collapsible=1;marginBottom=0;rounded=0;shadow=0;strokeWidth=1;" parent="WIyWlLk6GJQsqaUBKTNV-1" vertex="1">
          <mxGeometry x="490" y="90" width="170" height="140" as="geometry">
            <mxRectangle x="230" y="140" width="160" height="26" as="alternateBounds" />
          </mxGeometry>
        </mxCell>
        <mxCell id="VZGt5exxxiFLXdMZdl2L-58" value="id : Long" style="text;align=left;verticalAlign=top;spacingLeft=4;spacingRight=4;overflow=hidden;rotatable=0;points=[[0,0.5],[1,0.5]];portConstraint=eastwest;" parent="VZGt5exxxiFLXdMZdl2L-57" vertex="1">
          <mxGeometry y="26" width="170" height="26" as="geometry" />
        </mxCell>
        <mxCell id="VZGt5exxxiFLXdMZdl2L-59" value="name : VARCHAR" style="text;align=left;verticalAlign=top;spacingLeft=4;spacingRight=4;overflow=hidden;rotatable=0;points=[[0,0.5],[1,0.5]];portConstraint=eastwest;rounded=0;shadow=0;html=0;" parent="VZGt5exxxiFLXdMZdl2L-57" vertex="1">
          <mxGeometry y="52" width="170" height="26" as="geometry" />
        </mxCell>
        <mxCell id="VZGt5exxxiFLXdMZdl2L-60" value="created_at : TIMESTAMP" style="text;align=left;verticalAlign=top;spacingLeft=4;spacingRight=4;overflow=hidden;rotatable=0;points=[[0,0.5],[1,0.5]];portConstraint=eastwest;rounded=0;shadow=0;html=0;" parent="VZGt5exxxiFLXdMZdl2L-57" vertex="1">
          <mxGeometry y="78" width="170" height="26" as="geometry" />
        </mxCell>
        <mxCell id="VZGt5exxxiFLXdMZdl2L-61" value="updated_at : TIMESTAMP" style="text;align=left;verticalAlign=top;spacingLeft=4;spacingRight=4;overflow=hidden;rotatable=0;points=[[0,0.5],[1,0.5]];portConstraint=eastwest;rounded=0;shadow=0;html=0;" parent="VZGt5exxxiFLXdMZdl2L-57" vertex="1">
          <mxGeometry y="104" width="170" height="26" as="geometry" />
        </mxCell>
        <mxCell id="VZGt5exxxiFLXdMZdl2L-62" value="" style="line;html=1;strokeWidth=1;align=left;verticalAlign=middle;spacingTop=-1;spacingLeft=3;spacingRight=3;rotatable=0;labelPosition=right;points=[];portConstraint=eastwest;" parent="VZGt5exxxiFLXdMZdl2L-57" vertex="1">
          <mxGeometry y="130" width="170" height="8" as="geometry" />
        </mxCell>
        <mxCell id="VZGt5exxxiFLXdMZdl2L-73" value="" style="endArrow=none;html=1;edgeStyle=orthogonalEdgeStyle;rounded=0;exitX=0.458;exitY=0;exitDx=0;exitDy=0;exitPerimeter=0;entryX=0.5;entryY=1;entryDx=0;entryDy=0;" parent="WIyWlLk6GJQsqaUBKTNV-1" source="zkfFHV4jXpPFQw0GAbJ--0" target="VZGt5exxxiFLXdMZdl2L-14" edge="1">
          <mxGeometry relative="1" as="geometry">
            <mxPoint x="10" y="150" as="sourcePoint" />
            <mxPoint x="170" y="150" as="targetPoint" />
          </mxGeometry>
        </mxCell>
        <mxCell id="VZGt5exxxiFLXdMZdl2L-74" value="1" style="edgeLabel;resizable=0;html=1;align=left;verticalAlign=bottom;" parent="VZGt5exxxiFLXdMZdl2L-73" connectable="0" vertex="1">
          <mxGeometry x="-1" relative="1" as="geometry">
            <mxPoint x="2" y="-6" as="offset" />
          </mxGeometry>
        </mxCell>
        <mxCell id="VZGt5exxxiFLXdMZdl2L-75" value="*" style="edgeLabel;resizable=0;html=1;align=right;verticalAlign=bottom;" parent="VZGt5exxxiFLXdMZdl2L-73" connectable="0" vertex="1">
          <mxGeometry x="1" relative="1" as="geometry">
            <mxPoint x="-4" y="18" as="offset" />
          </mxGeometry>
        </mxCell>
        <mxCell id="VZGt5exxxiFLXdMZdl2L-77" value="" style="endArrow=none;html=1;edgeStyle=orthogonalEdgeStyle;rounded=0;exitX=0.25;exitY=0;exitDx=0;exitDy=0;entryX=0.75;entryY=1;entryDx=0;entryDy=0;" parent="WIyWlLk6GJQsqaUBKTNV-1" source="VZGt5exxxiFLXdMZdl2L-44" target="VZGt5exxxiFLXdMZdl2L-14" edge="1">
          <mxGeometry relative="1" as="geometry">
            <mxPoint x="302.49" y="277" as="sourcePoint" />
            <mxPoint x="399.49" y="200" as="targetPoint" />
          </mxGeometry>
        </mxCell>
        <mxCell id="VZGt5exxxiFLXdMZdl2L-78" value="1" style="edgeLabel;resizable=0;html=1;align=left;verticalAlign=bottom;" parent="VZGt5exxxiFLXdMZdl2L-77" connectable="0" vertex="1">
          <mxGeometry x="-1" relative="1" as="geometry">
            <mxPoint x="3" y="-5" as="offset" />
          </mxGeometry>
        </mxCell>
        <mxCell id="VZGt5exxxiFLXdMZdl2L-79" value="1" style="edgeLabel;resizable=0;html=1;align=right;verticalAlign=bottom;" parent="VZGt5exxxiFLXdMZdl2L-77" connectable="0" vertex="1">
          <mxGeometry x="1" relative="1" as="geometry">
            <mxPoint x="-2" y="18" as="offset" />
          </mxGeometry>
        </mxCell>
        <mxCell id="VZGt5exxxiFLXdMZdl2L-80" value="" style="endArrow=none;html=1;edgeStyle=orthogonalEdgeStyle;rounded=0;exitX=-0.01;exitY=0.144;exitDx=0;exitDy=0;entryX=1.016;entryY=0.365;entryDx=0;entryDy=0;entryPerimeter=0;exitPerimeter=0;" parent="WIyWlLk6GJQsqaUBKTNV-1" source="VZGt5exxxiFLXdMZdl2L-61" target="VZGt5exxxiFLXdMZdl2L-24" edge="1">
          <mxGeometry relative="1" as="geometry">
            <mxPoint x="453" y="329" as="sourcePoint" />
            <mxPoint x="338" y="200" as="targetPoint" />
          </mxGeometry>
        </mxCell>
        <mxCell id="VZGt5exxxiFLXdMZdl2L-81" value="1" style="edgeLabel;resizable=0;html=1;align=left;verticalAlign=bottom;" parent="VZGt5exxxiFLXdMZdl2L-80" connectable="0" vertex="1">
          <mxGeometry x="-1" relative="1" as="geometry">
            <mxPoint x="-8" as="offset" />
          </mxGeometry>
        </mxCell>
        <mxCell id="VZGt5exxxiFLXdMZdl2L-82" value="1" style="edgeLabel;resizable=0;html=1;align=right;verticalAlign=bottom;" parent="VZGt5exxxiFLXdMZdl2L-80" connectable="0" vertex="1">
          <mxGeometry x="1" relative="1" as="geometry">
            <mxPoint x="9" y="18" as="offset" />
          </mxGeometry>
        </mxCell>
        <mxCell id="VZGt5exxxiFLXdMZdl2L-84" value="" style="endArrow=none;html=1;edgeStyle=orthogonalEdgeStyle;rounded=0;exitX=0.5;exitY=1;exitDx=0;exitDy=0;entryX=1;entryY=0.5;entryDx=0;entryDy=0;" parent="WIyWlLk6GJQsqaUBKTNV-1" source="VZGt5exxxiFLXdMZdl2L-27" target="VZGt5exxxiFLXdMZdl2L-21" edge="1">
          <mxGeometry relative="1" as="geometry">
            <mxPoint x="485" y="85" as="sourcePoint" />
            <mxPoint x="370" y="22" as="targetPoint" />
            <Array as="points">
              <mxPoint x="525" y="60" />
              <mxPoint x="410" y="60" />
              <mxPoint x="410" y="86" />
            </Array>
          </mxGeometry>
        </mxCell>
        <mxCell id="VZGt5exxxiFLXdMZdl2L-85" value="*" style="edgeLabel;resizable=0;html=1;align=left;verticalAlign=bottom;" parent="VZGt5exxxiFLXdMZdl2L-84" connectable="0" vertex="1">
          <mxGeometry x="-1" relative="1" as="geometry">
            <mxPoint x="-11" y="19" as="offset" />
          </mxGeometry>
        </mxCell>
        <mxCell id="VZGt5exxxiFLXdMZdl2L-86" value="1" style="edgeLabel;resizable=0;html=1;align=right;verticalAlign=bottom;" parent="VZGt5exxxiFLXdMZdl2L-84" connectable="0" vertex="1">
          <mxGeometry x="1" relative="1" as="geometry">
            <mxPoint x="11" y="20" as="offset" />
          </mxGeometry>
        </mxCell>
        <mxCell id="VZGt5exxxiFLXdMZdl2L-87" value="" style="endArrow=none;html=1;edgeStyle=orthogonalEdgeStyle;rounded=0;exitX=0;exitY=0.5;exitDx=0;exitDy=0;entryX=1;entryY=0.692;entryDx=0;entryDy=0;entryPerimeter=0;" parent="WIyWlLk6GJQsqaUBKTNV-1" source="VZGt5exxxiFLXdMZdl2L-52" target="VZGt5exxxiFLXdMZdl2L-59" edge="1">
          <mxGeometry relative="1" as="geometry">
            <mxPoint x="815" y="85" as="sourcePoint" />
            <mxPoint x="700" y="22" as="targetPoint" />
          </mxGeometry>
        </mxCell>
        <mxCell id="VZGt5exxxiFLXdMZdl2L-88" value="1" style="edgeLabel;resizable=0;html=1;align=left;verticalAlign=bottom;" parent="VZGt5exxxiFLXdMZdl2L-87" connectable="0" vertex="1">
          <mxGeometry x="-1" relative="1" as="geometry">
            <mxPoint x="-12" as="offset" />
          </mxGeometry>
        </mxCell>
        <mxCell id="VZGt5exxxiFLXdMZdl2L-89" value="*" style="edgeLabel;resizable=0;html=1;align=right;verticalAlign=bottom;" parent="VZGt5exxxiFLXdMZdl2L-87" connectable="0" vertex="1">
          <mxGeometry x="1" relative="1" as="geometry">
            <mxPoint x="9" y="18" as="offset" />
          </mxGeometry>
        </mxCell>
        <mxCell id="VZGt5exxxiFLXdMZdl2L-90" value="" style="endArrow=none;html=1;edgeStyle=orthogonalEdgeStyle;rounded=0;entryX=1;entryY=0.5;entryDx=0;entryDy=0;exitX=0;exitY=0.5;exitDx=0;exitDy=0;" parent="WIyWlLk6GJQsqaUBKTNV-1" source="VZGt5exxxiFLXdMZdl2L-42" target="VZGt5exxxiFLXdMZdl2L-46" edge="1">
          <mxGeometry relative="1" as="geometry">
            <mxPoint x="690" y="410" as="sourcePoint" />
            <mxPoint x="640" y="260" as="targetPoint" />
          </mxGeometry>
        </mxCell>
        <mxCell id="VZGt5exxxiFLXdMZdl2L-91" value="1" style="edgeLabel;resizable=0;html=1;align=left;verticalAlign=bottom;" parent="VZGt5exxxiFLXdMZdl2L-90" connectable="0" vertex="1">
          <mxGeometry x="-1" relative="1" as="geometry">
            <mxPoint x="-12" as="offset" />
          </mxGeometry>
        </mxCell>
        <mxCell id="VZGt5exxxiFLXdMZdl2L-92" value="*" style="edgeLabel;resizable=0;html=1;align=right;verticalAlign=bottom;" parent="VZGt5exxxiFLXdMZdl2L-90" connectable="0" vertex="1">
          <mxGeometry x="1" relative="1" as="geometry">
            <mxPoint x="9" y="18" as="offset" />
          </mxGeometry>
        </mxCell>
        <mxCell id="VZGt5exxxiFLXdMZdl2L-93" value="likes" style="swimlane;fontStyle=2;align=center;verticalAlign=top;childLayout=stackLayout;horizontal=1;startSize=26;horizontalStack=0;resizeParent=1;resizeLast=0;collapsible=1;marginBottom=0;rounded=0;shadow=0;strokeWidth=1;" parent="WIyWlLk6GJQsqaUBKTNV-1" vertex="1">
          <mxGeometry x="-120" y="50" width="170" height="112" as="geometry">
            <mxRectangle x="230" y="140" width="160" height="26" as="alternateBounds" />
          </mxGeometry>
        </mxCell>
        <mxCell id="VZGt5exxxiFLXdMZdl2L-94" value="id : Long" style="text;align=left;verticalAlign=top;spacingLeft=4;spacingRight=4;overflow=hidden;rotatable=0;points=[[0,0.5],[1,0.5]];portConstraint=eastwest;" parent="VZGt5exxxiFLXdMZdl2L-93" vertex="1">
          <mxGeometry y="26" width="170" height="26" as="geometry" />
        </mxCell>
        <mxCell id="VZGt5exxxiFLXdMZdl2L-96" value="created_at : TIMESTAMP" style="text;align=left;verticalAlign=top;spacingLeft=4;spacingRight=4;overflow=hidden;rotatable=0;points=[[0,0.5],[1,0.5]];portConstraint=eastwest;rounded=0;shadow=0;html=0;" parent="VZGt5exxxiFLXdMZdl2L-93" vertex="1">
          <mxGeometry y="52" width="170" height="26" as="geometry" />
        </mxCell>
        <mxCell id="VZGt5exxxiFLXdMZdl2L-97" value="" style="line;html=1;strokeWidth=1;align=left;verticalAlign=middle;spacingTop=-1;spacingLeft=3;spacingRight=3;rotatable=0;labelPosition=right;points=[];portConstraint=eastwest;" parent="VZGt5exxxiFLXdMZdl2L-93" vertex="1">
          <mxGeometry y="78" width="170" height="8" as="geometry" />
        </mxCell>
        <mxCell id="VZGt5exxxiFLXdMZdl2L-100" value="" style="endArrow=none;html=1;edgeStyle=orthogonalEdgeStyle;rounded=0;exitX=0.25;exitY=0;exitDx=0;exitDy=0;entryX=0.5;entryY=1;entryDx=0;entryDy=0;" parent="WIyWlLk6GJQsqaUBKTNV-1" source="zkfFHV4jXpPFQw0GAbJ--0" target="VZGt5exxxiFLXdMZdl2L-93" edge="1">
          <mxGeometry relative="1" as="geometry">
            <mxPoint x="-130" y="267" as="sourcePoint" />
            <mxPoint x="-33" y="190" as="targetPoint" />
          </mxGeometry>
        </mxCell>
        <mxCell id="VZGt5exxxiFLXdMZdl2L-101" value="1" style="edgeLabel;resizable=0;html=1;align=left;verticalAlign=bottom;" parent="VZGt5exxxiFLXdMZdl2L-100" connectable="0" vertex="1">
          <mxGeometry x="-1" relative="1" as="geometry">
            <mxPoint x="2" y="-6" as="offset" />
          </mxGeometry>
        </mxCell>
        <mxCell id="VZGt5exxxiFLXdMZdl2L-102" value="*" style="edgeLabel;resizable=0;html=1;align=right;verticalAlign=bottom;" parent="VZGt5exxxiFLXdMZdl2L-100" connectable="0" vertex="1">
          <mxGeometry x="1" relative="1" as="geometry">
            <mxPoint x="-4" y="18" as="offset" />
          </mxGeometry>
        </mxCell>
        <mxCell id="VZGt5exxxiFLXdMZdl2L-103" value="" style="endArrow=none;html=1;edgeStyle=orthogonalEdgeStyle;rounded=0;exitX=0;exitY=0.5;exitDx=0;exitDy=0;entryX=0.5;entryY=0;entryDx=0;entryDy=0;" parent="WIyWlLk6GJQsqaUBKTNV-1" source="VZGt5exxxiFLXdMZdl2L-18" target="VZGt5exxxiFLXdMZdl2L-93" edge="1">
          <mxGeometry relative="1" as="geometry">
            <mxPoint x="188" y="-48" as="sourcePoint" />
            <mxPoint y="-150" as="targetPoint" />
          </mxGeometry>
        </mxCell>
        <mxCell id="VZGt5exxxiFLXdMZdl2L-104" value="1" style="edgeLabel;resizable=0;html=1;align=left;verticalAlign=bottom;" parent="VZGt5exxxiFLXdMZdl2L-103" connectable="0" vertex="1">
          <mxGeometry x="-1" relative="1" as="geometry">
            <mxPoint x="-14" y="-2" as="offset" />
          </mxGeometry>
        </mxCell>
        <mxCell id="VZGt5exxxiFLXdMZdl2L-105" value="*" style="edgeLabel;resizable=0;html=1;align=right;verticalAlign=bottom;" parent="VZGt5exxxiFLXdMZdl2L-103" connectable="0" vertex="1">
          <mxGeometry x="1" relative="1" as="geometry">
            <mxPoint x="-4" y="-2" as="offset" />
          </mxGeometry>
        </mxCell>
      </root>
    </mxGraphModel>
  </diagram>
  <diagram id="n-IZP8PRhoHNXQBmA6QG" name="Diagramme de cas d&#39;utilisation">
    <mxGraphModel dx="1167" dy="743" grid="1" gridSize="10" guides="1" tooltips="1" connect="1" arrows="1" fold="1" page="1" pageScale="1" pageWidth="850" pageHeight="1100" math="0" shadow="0">
      <root>
        <mxCell id="0" />
        <mxCell id="1" parent="0" />
        <mxCell id="-wTp9zZsEpR4nShP3EIR-66" value="" style="html=1;whiteSpace=wrap;" vertex="1" parent="1">
          <mxGeometry x="170" y="140" width="610" height="580" as="geometry" />
        </mxCell>
        <mxCell id="-wTp9zZsEpR4nShP3EIR-67" style="edgeStyle=orthogonalEdgeStyle;rounded=0;orthogonalLoop=1;jettySize=auto;html=1;entryX=0;entryY=0.5;entryDx=0;entryDy=0;" edge="1" parent="1" source="-wTp9zZsEpR4nShP3EIR-72" target="-wTp9zZsEpR4nShP3EIR-74">
          <mxGeometry relative="1" as="geometry">
            <Array as="points">
              <mxPoint x="100" y="262" />
              <mxPoint x="100" y="310" />
            </Array>
          </mxGeometry>
        </mxCell>
        <mxCell id="-wTp9zZsEpR4nShP3EIR-68" style="edgeStyle=orthogonalEdgeStyle;rounded=0;orthogonalLoop=1;jettySize=auto;html=1;exitX=0.5;exitY=0.5;exitDx=0;exitDy=0;exitPerimeter=0;entryX=0;entryY=0.5;entryDx=0;entryDy=0;" edge="1" parent="1" source="-wTp9zZsEpR4nShP3EIR-72" target="-wTp9zZsEpR4nShP3EIR-73">
          <mxGeometry relative="1" as="geometry">
            <Array as="points">
              <mxPoint x="100" y="262" />
              <mxPoint x="100" y="273" />
            </Array>
          </mxGeometry>
        </mxCell>
        <mxCell id="-wTp9zZsEpR4nShP3EIR-69" style="edgeStyle=orthogonalEdgeStyle;rounded=0;orthogonalLoop=1;jettySize=auto;html=1;entryX=0;entryY=0.5;entryDx=0;entryDy=0;" edge="1" parent="1" source="-wTp9zZsEpR4nShP3EIR-72" target="-wTp9zZsEpR4nShP3EIR-75">
          <mxGeometry relative="1" as="geometry">
            <Array as="points">
              <mxPoint x="100" y="262" />
              <mxPoint x="100" y="342" />
            </Array>
          </mxGeometry>
        </mxCell>
        <mxCell id="-wTp9zZsEpR4nShP3EIR-70" style="edgeStyle=orthogonalEdgeStyle;rounded=0;orthogonalLoop=1;jettySize=auto;html=1;exitX=0.5;exitY=0.5;exitDx=0;exitDy=0;exitPerimeter=0;entryX=0;entryY=0.5;entryDx=0;entryDy=0;" edge="1" parent="1" source="-wTp9zZsEpR4nShP3EIR-72" target="-wTp9zZsEpR4nShP3EIR-77">
          <mxGeometry relative="1" as="geometry">
            <Array as="points">
              <mxPoint x="100" y="262" />
              <mxPoint x="100" y="412" />
              <mxPoint x="194" y="412" />
            </Array>
          </mxGeometry>
        </mxCell>
        <mxCell id="-wTp9zZsEpR4nShP3EIR-71" style="edgeStyle=orthogonalEdgeStyle;rounded=0;orthogonalLoop=1;jettySize=auto;html=1;entryX=0;entryY=0.5;entryDx=0;entryDy=0;" edge="1" parent="1" source="-wTp9zZsEpR4nShP3EIR-72" target="-wTp9zZsEpR4nShP3EIR-92">
          <mxGeometry relative="1" as="geometry">
            <Array as="points">
              <mxPoint x="100" y="262" />
              <mxPoint x="100" y="446" />
            </Array>
          </mxGeometry>
        </mxCell>
        <mxCell id="-wTp9zZsEpR4nShP3EIR-72" value="User" style="shape=umlActor;verticalLabelPosition=bottom;verticalAlign=top;html=1;" vertex="1" parent="1">
          <mxGeometry x="20" y="232" width="30" height="60" as="geometry" />
        </mxCell>
        <mxCell id="-wTp9zZsEpR4nShP3EIR-73" value="Craete article" style="ellipse;whiteSpace=wrap;html=1;" vertex="1" parent="1">
          <mxGeometry x="227" y="253" width="110" height="40" as="geometry" />
        </mxCell>
        <mxCell id="-wTp9zZsEpR4nShP3EIR-74" value="Edit article" style="ellipse;whiteSpace=wrap;html=1;" vertex="1" parent="1">
          <mxGeometry x="312" y="290" width="110" height="40" as="geometry" />
        </mxCell>
        <mxCell id="-wTp9zZsEpR4nShP3EIR-75" value="Delete article" style="ellipse;whiteSpace=wrap;html=1;" vertex="1" parent="1">
          <mxGeometry x="220" y="322" width="110" height="40" as="geometry" />
        </mxCell>
        <mxCell id="-wTp9zZsEpR4nShP3EIR-76" value="Like an article" style="ellipse;whiteSpace=wrap;html=1;" vertex="1" parent="1">
          <mxGeometry x="315" y="357" width="110" height="41" as="geometry" />
        </mxCell>
        <mxCell id="-wTp9zZsEpR4nShP3EIR-77" value="Upload Images for Article" style="ellipse;whiteSpace=wrap;html=1;" vertex="1" parent="1">
          <mxGeometry x="194" y="393" width="130" height="40" as="geometry" />
        </mxCell>
        <mxCell id="-wTp9zZsEpR4nShP3EIR-78" style="edgeStyle=orthogonalEdgeStyle;rounded=0;orthogonalLoop=1;jettySize=auto;html=1;entryX=0;entryY=0.5;entryDx=0;entryDy=0;" edge="1" parent="1" source="-wTp9zZsEpR4nShP3EIR-80" target="-wTp9zZsEpR4nShP3EIR-81">
          <mxGeometry relative="1" as="geometry">
            <Array as="points">
              <mxPoint x="150" y="672" />
              <mxPoint x="150" y="632" />
            </Array>
          </mxGeometry>
        </mxCell>
        <mxCell id="-wTp9zZsEpR4nShP3EIR-79" style="edgeStyle=orthogonalEdgeStyle;rounded=0;orthogonalLoop=1;jettySize=auto;html=1;entryX=0;entryY=0.5;entryDx=0;entryDy=0;" edge="1" parent="1" source="-wTp9zZsEpR4nShP3EIR-80" target="-wTp9zZsEpR4nShP3EIR-82">
          <mxGeometry relative="1" as="geometry">
            <Array as="points">
              <mxPoint x="150" y="672" />
              <mxPoint x="150" y="662" />
            </Array>
          </mxGeometry>
        </mxCell>
        <mxCell id="-wTp9zZsEpR4nShP3EIR-80" value="Guest" style="shape=umlActor;verticalLabelPosition=bottom;verticalAlign=top;html=1;" vertex="1" parent="1">
          <mxGeometry x="60" y="642" width="30" height="60" as="geometry" />
        </mxCell>
        <mxCell id="-wTp9zZsEpR4nShP3EIR-81" value="View Articles" style="ellipse;whiteSpace=wrap;html=1;" vertex="1" parent="1">
          <mxGeometry x="200" y="612" width="130" height="40" as="geometry" />
        </mxCell>
        <mxCell id="-wTp9zZsEpR4nShP3EIR-82" value="Search Articles by City" style="ellipse;whiteSpace=wrap;html=1;" vertex="1" parent="1">
          <mxGeometry x="312" y="642" width="130" height="40" as="geometry" />
        </mxCell>
        <mxCell id="-wTp9zZsEpR4nShP3EIR-83" value="Vroom" style="text;html=1;align=center;verticalAlign=middle;resizable=0;points=[];autosize=1;strokeColor=none;fillColor=none;" vertex="1" parent="1">
          <mxGeometry x="445" y="160" width="60" height="30" as="geometry" />
        </mxCell>
        <mxCell id="-wTp9zZsEpR4nShP3EIR-84" style="edgeStyle=orthogonalEdgeStyle;rounded=0;orthogonalLoop=1;jettySize=auto;html=1;entryX=0;entryY=0.5;entryDx=0;entryDy=0;" edge="1" parent="1" source="-wTp9zZsEpR4nShP3EIR-88" target="-wTp9zZsEpR4nShP3EIR-89">
          <mxGeometry relative="1" as="geometry">
            <Array as="points">
              <mxPoint x="120" y="502" />
              <mxPoint x="120" y="492" />
            </Array>
          </mxGeometry>
        </mxCell>
        <mxCell id="-wTp9zZsEpR4nShP3EIR-85" style="edgeStyle=orthogonalEdgeStyle;rounded=0;orthogonalLoop=1;jettySize=auto;html=1;" edge="1" parent="1" source="-wTp9zZsEpR4nShP3EIR-88" target="-wTp9zZsEpR4nShP3EIR-90">
          <mxGeometry relative="1" as="geometry">
            <Array as="points">
              <mxPoint x="120" y="502" />
              <mxPoint x="120" y="525" />
            </Array>
          </mxGeometry>
        </mxCell>
        <mxCell id="-wTp9zZsEpR4nShP3EIR-86" style="edgeStyle=orthogonalEdgeStyle;rounded=0;orthogonalLoop=1;jettySize=auto;html=1;entryX=0;entryY=0.5;entryDx=0;entryDy=0;" edge="1" parent="1" source="-wTp9zZsEpR4nShP3EIR-88" target="-wTp9zZsEpR4nShP3EIR-91">
          <mxGeometry relative="1" as="geometry">
            <Array as="points">
              <mxPoint x="120" y="502" />
              <mxPoint x="120" y="552" />
            </Array>
          </mxGeometry>
        </mxCell>
        <mxCell id="-wTp9zZsEpR4nShP3EIR-87" style="edgeStyle=orthogonalEdgeStyle;rounded=0;orthogonalLoop=1;jettySize=auto;html=1;entryX=0;entryY=0.5;entryDx=0;entryDy=0;" edge="1" parent="1" source="-wTp9zZsEpR4nShP3EIR-88" target="-wTp9zZsEpR4nShP3EIR-93">
          <mxGeometry relative="1" as="geometry">
            <Array as="points">
              <mxPoint x="120" y="502" />
              <mxPoint x="120" y="592" />
            </Array>
          </mxGeometry>
        </mxCell>
        <mxCell id="-wTp9zZsEpR4nShP3EIR-88" value="Admin" style="shape=umlActor;verticalLabelPosition=bottom;verticalAlign=top;html=1;" vertex="1" parent="1">
          <mxGeometry x="20" y="472" width="30" height="60" as="geometry" />
        </mxCell>
        <mxCell id="-wTp9zZsEpR4nShP3EIR-89" value="Manage Cities and Countries" style="ellipse;whiteSpace=wrap;html=1;" vertex="1" parent="1">
          <mxGeometry x="227" y="472" width="130" height="40" as="geometry" />
        </mxCell>
        <mxCell id="-wTp9zZsEpR4nShP3EIR-90" value="Manage Users" style="ellipse;whiteSpace=wrap;html=1;" vertex="1" parent="1">
          <mxGeometry x="321" y="505" width="130" height="40" as="geometry" />
        </mxCell>
        <mxCell id="-wTp9zZsEpR4nShP3EIR-91" value="Approve/Archive Articles" style="ellipse;whiteSpace=wrap;html=1;" vertex="1" parent="1">
          <mxGeometry x="200" y="532" width="130" height="40" as="geometry" />
        </mxCell>
        <mxCell id="-wTp9zZsEpR4nShP3EIR-92" value="Assign Modules or Marks" style="ellipse;whiteSpace=wrap;html=1;" vertex="1" parent="1">
          <mxGeometry x="290" y="426" width="130" height="40" as="geometry" />
        </mxCell>
        <mxCell id="-wTp9zZsEpR4nShP3EIR-93" value="Manage Marks and Models&amp;nbsp;" style="ellipse;whiteSpace=wrap;html=1;" vertex="1" parent="1">
          <mxGeometry x="330" y="572" width="130" height="40" as="geometry" />
        </mxCell>
        <mxCell id="-wTp9zZsEpR4nShP3EIR-94" style="edgeStyle=orthogonalEdgeStyle;rounded=0;orthogonalLoop=1;jettySize=auto;html=1;entryX=0.002;entryY=0.611;entryDx=0;entryDy=0;entryPerimeter=0;" edge="1" parent="1" source="-wTp9zZsEpR4nShP3EIR-72" target="-wTp9zZsEpR4nShP3EIR-76">
          <mxGeometry relative="1" as="geometry">
            <Array as="points">
              <mxPoint x="100" y="262" />
              <mxPoint x="100" y="382" />
            </Array>
          </mxGeometry>
        </mxCell>
        <mxCell id="-wTp9zZsEpR4nShP3EIR-95" value="Login" style="ellipse;whiteSpace=wrap;html=1;" vertex="1" parent="1">
          <mxGeometry x="630" y="391" width="110" height="110" as="geometry" />
        </mxCell>
        <mxCell id="-wTp9zZsEpR4nShP3EIR-96" value="&amp;lt;&amp;lt;include&amp;gt;&amp;gt;" style="html=1;verticalAlign=bottom;endArrow=open;dashed=1;endSize=8;curved=0;rounded=0;exitX=1;exitY=0.5;exitDx=0;exitDy=0;entryX=0;entryY=0;entryDx=0;entryDy=0;" edge="1" parent="1" source="-wTp9zZsEpR4nShP3EIR-73" target="-wTp9zZsEpR4nShP3EIR-95">
          <mxGeometry x="0.3268" relative="1" as="geometry">
            <mxPoint x="610" y="261.5" as="sourcePoint" />
            <mxPoint x="530" y="261.5" as="targetPoint" />
            <Array as="points">
              <mxPoint x="580" y="302" />
            </Array>
            <mxPoint as="offset" />
          </mxGeometry>
        </mxCell>
        <mxCell id="-wTp9zZsEpR4nShP3EIR-97" value="&amp;lt;&amp;lt;include&amp;gt;&amp;gt;" style="html=1;verticalAlign=bottom;endArrow=open;dashed=1;endSize=8;curved=0;rounded=0;exitX=1.002;exitY=0.384;exitDx=0;exitDy=0;entryX=0.082;entryY=0.179;entryDx=0;entryDy=0;exitPerimeter=0;entryPerimeter=0;" edge="1" parent="1" source="-wTp9zZsEpR4nShP3EIR-74" target="-wTp9zZsEpR4nShP3EIR-95">
          <mxGeometry x="0.3268" relative="1" as="geometry">
            <mxPoint x="347" y="283" as="sourcePoint" />
            <mxPoint x="656" y="417" as="targetPoint" />
            <Array as="points">
              <mxPoint x="570" y="322" />
            </Array>
            <mxPoint as="offset" />
          </mxGeometry>
        </mxCell>
        <mxCell id="-wTp9zZsEpR4nShP3EIR-98" value="&amp;lt;&amp;lt;include&amp;gt;&amp;gt;" style="html=1;verticalAlign=bottom;endArrow=open;dashed=1;endSize=8;curved=0;rounded=0;exitX=1;exitY=0.5;exitDx=0;exitDy=0;entryX=0.082;entryY=0.245;entryDx=0;entryDy=0;entryPerimeter=0;" edge="1" parent="1" source="-wTp9zZsEpR4nShP3EIR-75" target="-wTp9zZsEpR4nShP3EIR-95">
          <mxGeometry x="0.3268" relative="1" as="geometry">
            <mxPoint x="432" y="315" as="sourcePoint" />
            <mxPoint x="649" y="421" as="targetPoint" />
            <Array as="points">
              <mxPoint x="550" y="352" />
            </Array>
            <mxPoint as="offset" />
          </mxGeometry>
        </mxCell>
        <mxCell id="-wTp9zZsEpR4nShP3EIR-99" value="&amp;lt;&amp;lt;include&amp;gt;&amp;gt;" style="html=1;verticalAlign=bottom;endArrow=open;dashed=1;endSize=8;curved=0;rounded=0;exitX=1;exitY=0.5;exitDx=0;exitDy=0;entryX=0.067;entryY=0.295;entryDx=0;entryDy=0;entryPerimeter=0;" edge="1" parent="1" source="-wTp9zZsEpR4nShP3EIR-76" target="-wTp9zZsEpR4nShP3EIR-95">
          <mxGeometry x="0.3268" relative="1" as="geometry">
            <mxPoint x="340" y="352" as="sourcePoint" />
            <mxPoint x="649" y="428" as="targetPoint" />
            <Array as="points">
              <mxPoint x="540" y="382" />
            </Array>
            <mxPoint as="offset" />
          </mxGeometry>
        </mxCell>
        <mxCell id="-wTp9zZsEpR4nShP3EIR-100" value="&amp;lt;&amp;lt;include&amp;gt;&amp;gt;" style="html=1;verticalAlign=bottom;endArrow=open;dashed=1;endSize=8;curved=0;rounded=0;exitX=1;exitY=0.5;exitDx=0;exitDy=0;entryX=0.012;entryY=0.37;entryDx=0;entryDy=0;entryPerimeter=0;" edge="1" parent="1" source="-wTp9zZsEpR4nShP3EIR-77" target="-wTp9zZsEpR4nShP3EIR-95">
          <mxGeometry x="0.3268" relative="1" as="geometry">
            <mxPoint x="435" y="388" as="sourcePoint" />
            <mxPoint x="647" y="433" as="targetPoint" />
            <Array as="points">
              <mxPoint x="530" y="422" />
            </Array>
            <mxPoint as="offset" />
          </mxGeometry>
        </mxCell>
        <mxCell id="-wTp9zZsEpR4nShP3EIR-101" value="&amp;lt;&amp;lt;include&amp;gt;&amp;gt;" style="html=1;verticalAlign=bottom;endArrow=open;dashed=1;endSize=8;curved=0;rounded=0;exitX=1;exitY=0.5;exitDx=0;exitDy=0;entryX=0.012;entryY=0.445;entryDx=0;entryDy=0;entryPerimeter=0;" edge="1" parent="1" source="-wTp9zZsEpR4nShP3EIR-92" target="-wTp9zZsEpR4nShP3EIR-95">
          <mxGeometry x="0.3268" relative="1" as="geometry">
            <mxPoint x="334" y="423" as="sourcePoint" />
            <mxPoint x="641" y="442" as="targetPoint" />
            <Array as="points">
              <mxPoint x="540" y="452" />
            </Array>
            <mxPoint as="offset" />
          </mxGeometry>
        </mxCell>
        <mxCell id="-wTp9zZsEpR4nShP3EIR-102" value="&amp;lt;&amp;lt;include&amp;gt;&amp;gt;" style="html=1;verticalAlign=bottom;endArrow=open;dashed=1;endSize=8;curved=0;rounded=0;exitX=1;exitY=0.5;exitDx=0;exitDy=0;entryX=0.009;entryY=0.592;entryDx=0;entryDy=0;entryPerimeter=0;" edge="1" parent="1" source="-wTp9zZsEpR4nShP3EIR-89" target="-wTp9zZsEpR4nShP3EIR-95">
          <mxGeometry x="0.3268" relative="1" as="geometry">
            <mxPoint x="430" y="456" as="sourcePoint" />
            <mxPoint x="641" y="450" as="targetPoint" />
            <Array as="points">
              <mxPoint x="550" y="472" />
            </Array>
            <mxPoint as="offset" />
          </mxGeometry>
        </mxCell>
        <mxCell id="-wTp9zZsEpR4nShP3EIR-103" value="&amp;lt;&amp;lt;include&amp;gt;&amp;gt;" style="html=1;verticalAlign=bottom;endArrow=open;dashed=1;endSize=8;curved=0;rounded=0;exitX=1;exitY=0.5;exitDx=0;exitDy=0;entryX=0.039;entryY=0.732;entryDx=0;entryDy=0;entryPerimeter=0;" edge="1" parent="1" source="-wTp9zZsEpR4nShP3EIR-90" target="-wTp9zZsEpR4nShP3EIR-95">
          <mxGeometry x="0.3268" relative="1" as="geometry">
            <mxPoint x="367" y="502" as="sourcePoint" />
            <mxPoint x="641" y="466" as="targetPoint" />
            <Array as="points">
              <mxPoint x="580" y="512" />
            </Array>
            <mxPoint as="offset" />
          </mxGeometry>
        </mxCell>
        <mxCell id="-wTp9zZsEpR4nShP3EIR-104" value="&amp;lt;&amp;lt;include&amp;gt;&amp;gt;" style="html=1;verticalAlign=bottom;endArrow=open;dashed=1;endSize=8;curved=0;rounded=0;exitX=1;exitY=0.5;exitDx=0;exitDy=0;entryX=0.073;entryY=0.795;entryDx=0;entryDy=0;entryPerimeter=0;" edge="1" parent="1" source="-wTp9zZsEpR4nShP3EIR-91" target="-wTp9zZsEpR4nShP3EIR-95">
          <mxGeometry x="0.3268" relative="1" as="geometry">
            <mxPoint x="461" y="535" as="sourcePoint" />
            <mxPoint x="644" y="482" as="targetPoint" />
            <Array as="points">
              <mxPoint x="450" y="560" />
              <mxPoint x="580" y="542" />
            </Array>
            <mxPoint as="offset" />
          </mxGeometry>
        </mxCell>
        <mxCell id="-wTp9zZsEpR4nShP3EIR-105" value="&amp;lt;&amp;lt;include&amp;gt;&amp;gt;" style="html=1;verticalAlign=bottom;endArrow=open;dashed=1;endSize=8;curved=0;rounded=0;exitX=1;exitY=0.5;exitDx=0;exitDy=0;entryX=0.073;entryY=0.795;entryDx=0;entryDy=0;entryPerimeter=0;" edge="1" parent="1" source="-wTp9zZsEpR4nShP3EIR-93">
          <mxGeometry x="0.3268" relative="1" as="geometry">
            <mxPoint x="340" y="562" as="sourcePoint" />
            <mxPoint x="648" y="488" as="targetPoint" />
            <Array as="points">
              <mxPoint x="640" y="562" />
            </Array>
            <mxPoint as="offset" />
          </mxGeometry>
        </mxCell>
      </root>
    </mxGraphModel>
  </diagram>
</mxfile>
